<svg id="line_gradient" data-name="line gradient" xmlns="http://www.w3.org/2000/svg" xmlns:xlink="http://www.w3.org/1999/xlink" viewBox="0 0 64 64"><defs><style>.cls-1{fill:url(#linear-gradient);}</style><linearGradient id="linear-gradient" x1="4" y1="31.92766" x2="60.00005" y2="31.92766" gradientUnits="userSpaceOnUse"><stop offset="0" stop-color="#ffffff" id="id_102"></stop><stop offset="0" stop-color="#ffffff" id="id_103"></stop><stop offset="0.10714" stop-color="#ffffff" id="id_104"></stop><stop offset="0.31792" stop-color="#ffffff" id="id_105"></stop><stop offset="0.60091" stop-color="#ffffff" id="id_106"></stop><stop offset="1" stop-color="#ffffff" id="id_107"></stop><stop offset="1" id="id_108" style="stop-color: rgb(255, 255, 255);"></stop></linearGradient></defs><path class="cls-1" d="M23.8999,25.46533H15.7998a1.00006,1.00006,0,0,0-1,1V44.1499a1.00005,1.00005,0,0,0,1,1h8.1001a1,1,0,0,0,1-1V26.46533A1.00005,1.00005,0,0,0,23.8999,25.46533Zm-1,17.68457H16.7998V27.46533h6.1001ZM48.2002,31H40.1001a1,1,0,0,0-1,1V44.1499a1,1,0,0,0,1,1h8.1001a1.00005,1.00005,0,0,0,1-1V32A1.00005,1.00005,0,0,0,48.2002,31Zm-1,12.1499H41.1001V33h6.1001ZM36.0498,18.8501H27.9502a1,1,0,0,0-1,1V44.1499a1,1,0,0,0,1,1h8.0996a1,1,0,0,0,1-1V19.8501A1,1,0,0,0,36.0498,18.8501Zm-1,24.2998H28.9502V20.8501h6.0996ZM32,4A28.03146,28.03146,0,0,0,4,32c1.53775,37.14587,54.46791,37.13506,56.00005-.00021A28.03149,28.03149,0,0,0,32,4Zm0,54A26.02947,26.02947,0,0,1,6,32c1.42821-34.49254,50.577-34.4825,52.00005.0002A26.0295,26.0295,0,0,1,32,58Z" id="id_101"></path></svg>